<svg width="390" height="44" viewBox="0 0 390 44" fill="none" xmlns="http://www.w3.org/2000/svg">
<g clip-path="url(#clip0_1305_4755)">
<path d="M117.768 -2H272.184V13C272.184 22.3888 264.572 30 255.184 30H134.768C125.379 30 117.768 22.3888 117.768 13V-2Z" fill="black"/>
<path d="M118 -2H113C113 -2 113 -2 113 -2C115.651 -2 117.799 0.148747 117.799 2.79934C117.799 2.86656 117.798 2.93345 117.795 3H118V-2Z" fill="black"/>
<path d="M272 -2H277C277 -2 277 -2 277 -2C274.349 -2 272.201 0.148747 272.201 2.79934C272.201 2.86656 272.202 2.93345 272.205 3H272V-2Z" fill="black"/>
<path d="M41.5146 20.1675C43.7705 20.1675 45.7334 21.7715 45.7334 25.5801V25.5947C45.7334 29.1543 44.1294 31.2637 41.4707 31.2637C39.5298 31.2637 38.0796 30.1138 37.7427 28.4951L37.728 28.4146H39.5884L39.6104 28.4878C39.8887 29.2275 40.5405 29.7109 41.4707 29.7109C43.1479 29.7109 43.8584 28.0703 43.939 26.0488C43.939 25.9683 43.9463 25.8877 43.9463 25.8071H43.7998C43.4116 26.6421 42.4888 27.3818 41.0386 27.3818C39.0098 27.3818 37.5889 25.9023 37.5889 23.8955V23.8809C37.5889 21.7349 39.2222 20.1675 41.5146 20.1675ZM41.5073 25.9316C42.7012 25.9316 43.6167 25.0674 43.6167 23.8735V23.8589C43.6167 22.6504 42.7012 21.7056 41.5293 21.7056C40.3647 21.7056 39.4346 22.6357 39.4346 23.8149V23.8296C39.4346 25.0527 40.3062 25.9316 41.5073 25.9316ZM48.5586 24.1519C47.8921 24.1519 47.394 23.6392 47.394 22.9946C47.394 22.3428 47.8921 21.8374 48.5586 21.8374C49.2324 21.8374 49.7231 22.3428 49.7231 22.9946C49.7231 23.6392 49.2324 24.1519 48.5586 24.1519ZM48.5586 29.5864C47.8921 29.5864 47.394 29.0811 47.394 28.4292C47.394 27.7773 47.8921 27.272 48.5586 27.272C49.2324 27.272 49.7231 27.7773 49.7231 28.4292C49.7231 29.0811 49.2324 29.5864 48.5586 29.5864ZM56.5107 31V28.9712H51.3398V27.4258C52.7095 25.0454 54.2109 22.6138 55.6465 20.4312H58.3198V27.4111H59.7407V28.9712H58.3198V31H56.5107ZM53.0977 27.4551H56.54V21.9399H56.4302C55.3462 23.5952 54.123 25.5508 53.0977 27.3452V27.4551ZM63.6206 31V22.2915H63.4961L60.8667 24.1519V22.3721L63.6279 20.4312H65.5103V31H63.6206Z" fill="white"/>
<path opacity="0.35" d="M347.528 21.8136C347.528 20.551 348.551 19.5275 349.814 19.5275H367.186C368.449 19.5275 369.472 20.551 369.472 21.8136V28.1864C369.472 29.449 368.449 30.4725 367.186 30.4725H349.814C348.551 30.4725 347.528 29.449 347.528 28.1864V21.8136Z" stroke="white" stroke-width="1.05509"/>
<path opacity="0.4" d="M371 23V27.2203C371.849 26.8629 372.401 26.0314 372.401 25.1102C372.401 24.1889 371.849 23.3574 371 23Z" fill="white"/>
<path d="M349 22.1606C349 21.5196 349.52 21 350.161 21H366.839C367.48 21 368 21.5196 368 22.1606V27.8394C368 28.4804 367.48 29 366.839 29H350.161C349.52 29 349 28.4804 349 27.8394V22.1606Z" fill="white"/>
<path fill-rule="evenodd" clip-rule="evenodd" d="M333.5 21.5875C335.967 21.5876 338.339 22.5551 340.127 24.2898C340.261 24.4237 340.477 24.4221 340.609 24.286L341.896 22.9604C341.963 22.8915 342.001 22.798 342 22.7008C341.999 22.6035 341.961 22.5105 341.893 22.4423C337.201 17.8526 329.799 17.8526 325.107 22.4423C325.039 22.5105 325.001 22.6034 325 22.7007C324.999 22.7979 325.037 22.8914 325.104 22.9604L326.391 24.286C326.523 24.4223 326.739 24.424 326.873 24.2898C328.661 22.5549 331.034 21.5875 333.5 21.5875ZM333.536 25.6724C334.891 25.6723 336.198 26.1864 337.203 27.115C337.338 27.2467 337.552 27.2439 337.685 27.1085L338.97 25.7829C339.038 25.7134 339.075 25.6191 339.074 25.5211C339.073 25.4231 339.034 25.3295 338.965 25.2614C335.906 22.3568 331.169 22.3568 328.109 25.2614C328.04 25.3295 328.001 25.4231 328 25.5212C327.999 25.6192 328.037 25.7135 328.105 25.7829L329.39 27.1085C329.522 27.2439 329.736 27.2467 329.872 27.115C330.876 26.1871 332.182 25.6729 333.536 25.6724ZM336.15 28.3427C336.152 28.441 336.114 28.5357 336.045 28.6046L333.822 30.8948C333.756 30.9621 333.668 31 333.575 31C333.482 31 333.393 30.9621 333.328 30.8948L331.105 28.6046C331.036 28.5357 330.998 28.4409 331 28.3426C331.002 28.2443 331.044 28.1512 331.115 28.0853C332.535 26.8595 334.615 26.8595 336.035 28.0853C336.106 28.1513 336.148 28.2444 336.15 28.3427Z" fill="white"/>
<path d="M312 22C312 21.4477 312.448 21 313 21H314C314.552 21 315 21.4477 315 22V30C315 30.5523 314.552 31 314 31H313C312.448 31 312 30.5523 312 30V22Z" fill="white"/>
<path d="M317 20C317 19.4477 317.448 19 318 19H319C319.552 19 320 19.4477 320 20V30C320 30.5523 319.552 31 319 31H318C317.448 31 317 30.5523 317 30V20Z" fill="white"/>
<path d="M307 26C307 25.4477 307.448 25 308 25H309C309.552 25 310 25.4477 310 26V30C310 30.5523 309.552 31 309 31H308C307.448 31 307 30.5523 307 30V26Z" fill="white"/>
<path d="M302 28C302 27.4477 302.448 27 303 27H304C304.552 27 305 27.4477 305 28V30C305 30.5523 304.552 31 304 31H303C302.448 31 302 30.5523 302 30V28Z" fill="white"/>
</g>
<defs>
<clipPath id="clip0_1305_4755">
<rect width="390" height="44" fill="white"/>
</clipPath>
</defs>
</svg>
