<svg width="15" height="11" viewBox="0 0 15 11" fill="none" xmlns="http://www.w3.org/2000/svg">
<path d="M6.707 10.6949C6.51947 10.8824 6.26516 10.9877 6 10.9877C5.73484 10.9877 5.48053 10.8824 5.293 10.6949L0.793 6.19493C0.605529 6.0074 0.500214 5.75309 0.500214 5.48793C0.500214 5.22277 0.605529 4.96846 0.793 4.78093L5.293 0.280931C5.4816 0.098772 5.7342 -0.00202179 5.9964 0.000256538C6.2586 0.00253487 6.50941 0.107704 6.69482 0.293112C6.88023 0.478519 6.9854 0.729333 6.98767 0.991529C6.98995 1.25373 6.88916 1.50633 6.707 1.69493L4 4.48793L13.5 4.48793C13.7652 4.48793 14.0196 4.59329 14.2071 4.78082C14.3946 4.96836 14.5 5.22271 14.5 5.48793C14.5 5.75315 14.3946 6.0075 14.2071 6.19504C14.0196 6.38257 13.7652 6.48793 13.5 6.48793L4 6.48793L6.707 9.28093C6.89447 9.46846 6.99979 9.72277 6.99979 9.98793C6.99979 10.2531 6.89447 10.5074 6.707 10.6949Z" fill="#FAFAFA"/>
</svg>
